<?xml version="1.0"?>
<svg xmlns="http://www.w3.org/2000/svg" xmlns:xlink="http://www.w3.org/1999/xlink" xmlns:svgjs="http://svgjs.com/svgjs" version="1.1" width="512" height="512" x="0" y="0" viewBox="0 0 512 512" style="enable-background:new 0 0 512 512" xml:space="preserve" class=""><g transform="matrix(0.8,0,0,0.8,51.20000305175779,51.19990234374998)">
<g xmlns="http://www.w3.org/2000/svg" transform="translate(1 1)">
	<g>
		<g>
			<path d="M169.667-1c-11.782,0-21.333,9.551-21.333,21.333v469.333c0,11.782,9.551,21.333,21.333,21.333     c11.782,0,21.333-9.551,21.333-21.333V20.333C191,8.551,181.449-1,169.667-1z" fill="#ffffff" data-original="#000000" style="" class=""/>
			<path d="M340.333-1C328.551-1,319,8.551,319,20.333v469.333c0,11.782,9.551,21.333,21.333,21.333     c11.782,0,21.333-9.551,21.333-21.333V20.333C361.667,8.551,352.115-1,340.333-1z" fill="#ffffff" data-original="#000000" style="" class=""/>
		</g>
	</g>
</g>
<g xmlns="http://www.w3.org/2000/svg">
</g>
<g xmlns="http://www.w3.org/2000/svg">
</g>
<g xmlns="http://www.w3.org/2000/svg">
</g>
<g xmlns="http://www.w3.org/2000/svg">
</g>
<g xmlns="http://www.w3.org/2000/svg">
</g>
<g xmlns="http://www.w3.org/2000/svg">
</g>
<g xmlns="http://www.w3.org/2000/svg">
</g>
<g xmlns="http://www.w3.org/2000/svg">
</g>
<g xmlns="http://www.w3.org/2000/svg">
</g>
<g xmlns="http://www.w3.org/2000/svg">
</g>
<g xmlns="http://www.w3.org/2000/svg">
</g>
<g xmlns="http://www.w3.org/2000/svg">
</g>
<g xmlns="http://www.w3.org/2000/svg">
</g>
<g xmlns="http://www.w3.org/2000/svg">
</g>
<g xmlns="http://www.w3.org/2000/svg">
</g>
</g></svg>
