<?xml version="1.0"?>
<svg xmlns="http://www.w3.org/2000/svg" xmlns:xlink="http://www.w3.org/1999/xlink" xmlns:svgjs="http://svgjs.com/svgjs" version="1.1" width="512" height="512" x="0" y="0" viewBox="0 0 330 330" style="enable-background:new 0 0 512 512" xml:space="preserve" class=""><g transform="matrix(-0.8,0,0,0.8,297.0003433227539,32.99996471405029)">
<g xmlns="http://www.w3.org/2000/svg" id="XMLID_103_">
	<path id="XMLID_104_" d="M310.607,154.391l-150-149.997c-5.857-5.858-15.355-5.858-21.213,0.001   c-5.857,5.858-5.857,15.355,0,21.213l139.393,139.39L139.394,304.394c-5.857,5.858-5.857,15.355,0,21.213   c2.929,2.929,6.768,4.393,10.606,4.393s7.678-1.464,10.607-4.394l150-150.003c2.813-2.813,4.393-6.628,4.393-10.606   C315,161.019,313.42,157.204,310.607,154.391z" fill="#ffffff" data-original="#000000" style="" class=""/>
	<path id="XMLID_105_" d="M195.001,164.996c0-3.979-1.581-7.794-4.394-10.607L40.606,4.393c-5.858-5.858-15.355-5.858-21.213,0.001   c-5.857,5.858-5.857,15.355,0.001,21.213l139.394,139.39L19.393,304.394c-5.857,5.858-5.857,15.355,0.001,21.213   C22.322,328.536,26.161,330,30,330s7.678-1.464,10.607-4.394l150.001-150.004C193.42,172.79,195.001,168.974,195.001,164.996z" fill="#ffffff" data-original="#000000" style="" class=""/>
</g>
<g xmlns="http://www.w3.org/2000/svg">
</g>
<g xmlns="http://www.w3.org/2000/svg">
</g>
<g xmlns="http://www.w3.org/2000/svg">
</g>
<g xmlns="http://www.w3.org/2000/svg">
</g>
<g xmlns="http://www.w3.org/2000/svg">
</g>
<g xmlns="http://www.w3.org/2000/svg">
</g>
<g xmlns="http://www.w3.org/2000/svg">
</g>
<g xmlns="http://www.w3.org/2000/svg">
</g>
<g xmlns="http://www.w3.org/2000/svg">
</g>
<g xmlns="http://www.w3.org/2000/svg">
</g>
<g xmlns="http://www.w3.org/2000/svg">
</g>
<g xmlns="http://www.w3.org/2000/svg">
</g>
<g xmlns="http://www.w3.org/2000/svg">
</g>
<g xmlns="http://www.w3.org/2000/svg">
</g>
<g xmlns="http://www.w3.org/2000/svg">
</g>
</g></svg>
